<svg width="1877" height="493" viewBox="0 0 1877 493" fill="none" xmlns="http://www.w3.org/2000/svg">
<path d="M61 24.5H429C434.247 24.5 438.5 28.7533 438.5 34V397C438.5 402.247 434.247 406.5 429 406.5H61C55.7533 406.5 51.5 402.247 51.5 397V34C51.5 28.7533 55.7533 24.5 61 24.5Z" fill="#F1EFEF" stroke="#1D1D1D"/>
<path d="M122 85.5H490C495.247 85.5 499.5 89.7533 499.5 95V458C499.5 463.247 495.247 467.5 490 467.5H122C116.753 467.5 112.5 463.247 112.5 458V95C112.5 89.7533 116.753 85.5 122 85.5Z" fill="#DCDCDC" stroke="#1D1D1D"/>
<path d="M683.266 166.875V353.203H747.109V384H650.5V166.875H683.266Z" fill="#404040"/>
<path d="M873.109 247.031H904.891V384H873.109V369.656C860.078 381.844 846.062 387.938 831.062 387.938C812.125 387.938 796.469 381.094 784.094 367.406C771.812 353.438 765.672 336 765.672 315.094C765.672 294.562 771.812 277.453 784.094 263.766C796.375 250.078 811.75 243.234 830.219 243.234C846.156 243.234 860.453 249.797 873.109 262.922V247.031ZM798.016 315.094C798.016 328.219 801.531 338.906 808.562 347.156C815.781 355.5 824.875 359.672 835.844 359.672C847.562 359.672 857.031 355.641 864.25 347.578C871.469 339.234 875.078 328.641 875.078 315.797C875.078 302.953 871.469 292.359 864.25 284.016C857.031 275.859 847.656 271.781 836.125 271.781C825.25 271.781 816.156 275.906 808.844 284.156C801.625 292.5 798.016 302.812 798.016 315.094Z" fill="#404040"/>
<path d="M976.469 146.484V262.922C989.125 249.797 1003.47 243.234 1019.5 243.234C1037.97 243.234 1053.34 250.125 1065.62 263.906C1077.91 277.594 1084.05 294.656 1084.05 315.094C1084.05 336.188 1077.86 353.625 1065.48 367.406C1053.2 381.094 1037.69 387.938 1018.94 387.938C1003.09 387.938 988.938 381.844 976.469 369.656V384H944.828V146.484H976.469ZM1051.7 316.5C1051.7 303.375 1048.14 292.688 1041.02 284.438C1033.8 276 1024.75 271.781 1013.88 271.781C1002.25 271.781 992.781 275.859 985.469 284.016C978.25 292.078 974.641 302.578 974.641 315.516C974.641 328.828 978.203 339.469 985.328 347.438C992.453 355.594 1001.83 359.672 1013.45 359.672C1024.42 359.672 1033.52 355.594 1040.73 347.438C1048.05 339.188 1051.7 328.875 1051.7 316.5Z" fill="#404040"/>
<path d="M1242.25 322.969H1144.09C1144.94 334.219 1148.59 343.172 1155.06 349.828C1161.53 356.391 1169.83 359.672 1179.95 359.672C1187.83 359.672 1194.34 357.797 1199.5 354.047C1204.56 350.297 1210.33 343.359 1216.8 333.234L1243.52 348.141C1239.39 355.172 1235.03 361.219 1230.44 366.281C1225.84 371.25 1220.92 375.375 1215.67 378.656C1210.42 381.844 1204.75 384.188 1198.66 385.688C1192.56 387.188 1185.95 387.938 1178.83 387.938C1158.39 387.938 1141.98 381.375 1129.61 368.25C1117.23 355.031 1111.05 337.5 1111.05 315.656C1111.05 294 1117.05 276.469 1129.05 263.062C1141.14 249.844 1157.17 243.234 1177.14 243.234C1197.3 243.234 1213.23 249.656 1224.95 262.5C1236.58 275.25 1242.39 292.922 1242.39 315.516L1242.25 322.969ZM1209.77 297.094C1205.36 280.219 1194.72 271.781 1177.84 271.781C1174 271.781 1170.39 272.391 1167.02 273.609C1163.64 274.734 1160.55 276.422 1157.73 278.672C1155.02 280.828 1152.67 283.453 1150.7 286.547C1148.73 289.641 1147.23 293.156 1146.2 297.094H1209.77Z" fill="#404040"/>
<path d="M1308.62 146.484V384H1276.98V146.484H1308.62Z" fill="#404040"/>
<path d="M1380.34 146.484V262.922C1393 249.797 1407.34 243.234 1423.38 243.234C1441.84 243.234 1457.22 250.125 1469.5 263.906C1481.78 277.594 1487.92 294.656 1487.92 315.094C1487.92 336.188 1481.73 353.625 1469.36 367.406C1457.08 381.094 1441.56 387.938 1422.81 387.938C1406.97 387.938 1392.81 381.844 1380.34 369.656V384H1348.7V146.484H1380.34ZM1455.58 316.5C1455.58 303.375 1452.02 292.688 1444.89 284.438C1437.67 276 1428.62 271.781 1417.75 271.781C1406.12 271.781 1396.66 275.859 1389.34 284.016C1382.12 292.078 1378.52 302.578 1378.52 315.516C1378.52 328.828 1382.08 339.469 1389.2 347.438C1396.33 355.594 1405.7 359.672 1417.33 359.672C1428.3 359.672 1437.39 355.594 1444.61 347.438C1451.92 339.188 1455.58 328.875 1455.58 316.5Z" fill="#404040"/>
<path d="M1514.92 314.531C1514.92 294.75 1522 277.922 1536.16 264.047C1550.31 250.172 1567.56 243.234 1587.91 243.234C1608.34 243.234 1625.69 250.219 1639.94 264.188C1654 278.156 1661.03 295.312 1661.03 315.656C1661.03 336.188 1653.95 353.391 1639.8 367.266C1625.55 381.047 1608.06 387.938 1587.34 387.938C1566.81 387.938 1549.61 380.906 1535.73 366.844C1521.86 352.969 1514.92 335.531 1514.92 314.531ZM1547.27 315.094C1547.27 328.781 1550.92 339.609 1558.23 347.578C1565.73 355.641 1575.62 359.672 1587.91 359.672C1600.28 359.672 1610.17 355.688 1617.58 347.719C1624.98 339.75 1628.69 329.109 1628.69 315.797C1628.69 302.484 1624.98 291.844 1617.58 283.875C1610.08 275.812 1600.19 271.781 1587.91 271.781C1575.81 271.781 1566.02 275.812 1558.52 283.875C1551.02 291.938 1547.27 302.344 1547.27 315.094Z" fill="#404040"/>
<path d="M1730.08 309.891L1680.86 247.031H1718.55L1749.06 286.969L1780.14 247.031H1818.95L1768.33 309.891L1826.97 384H1789.28L1749.06 332.812L1707.86 384H1669.19L1730.08 309.891Z" fill="#404040"/>
<path d="M234.906 146.484V384H203.266V146.484H234.906Z" fill="#404040"/>
<path d="M306.625 146.484V262.922C319.281 249.797 333.625 243.234 349.656 243.234C368.125 243.234 383.5 250.125 395.781 263.906C408.062 277.594 414.203 294.656 414.203 315.094C414.203 336.188 408.016 353.625 395.641 367.406C383.359 381.094 367.844 387.938 349.094 387.938C333.25 387.938 319.094 381.844 306.625 369.656V384H274.984V146.484H306.625ZM381.859 316.5C381.859 303.375 378.297 292.688 371.172 284.438C363.953 276 354.906 271.781 344.031 271.781C332.406 271.781 322.938 275.859 315.625 284.016C308.406 292.078 304.797 302.578 304.797 315.516C304.797 328.828 308.359 339.469 315.484 347.438C322.609 355.594 331.984 359.672 343.609 359.672C354.578 359.672 363.672 355.594 370.891 347.438C378.203 339.188 381.859 328.875 381.859 316.5Z" fill="#404040"/>
</svg>
